<mxfile host="drawio-plugin" modified="2022-08-09T01:56:07.680Z" agent="5.0 (Macintosh; Intel Mac OS X 10_15_7) AppleWebKit/537.36 (KHTML, like Gecko) Chrome/98.0.4758.102 Safari/537.36" version="15.5.4" etag="c5fpCO5Mu1bGI6K2IwSs" type="embed"><diagram id="ghV9EIlRZLhMQhuvBfJZ" name="Page-1"><mxGraphModel dx="861" dy="799" grid="0" gridSize="10" guides="1" tooltips="1" connect="1" arrows="1" fold="1" page="1" pageScale="1" pageWidth="850" pageHeight="1100" background="#EEEEEE" math="0" shadow="0"><root><mxCell id="0"/><mxCell id="1" parent="0"/><mxCell id="25" style="edgeStyle=orthogonalEdgeStyle;sketch=1;orthogonalLoop=1;jettySize=auto;html=1;exitX=0.5;exitY=1;exitDx=0;exitDy=0;fontColor=#1A1A1A;strokeColor=#182E3E;" edge="1" parent="1" source="11" target="24"><mxGeometry relative="1" as="geometry"/></mxCell><mxCell id="11" value="" style="rounded=0;whiteSpace=wrap;html=1;sketch=1;fontColor=#1A1A1A;strokeColor=none;fillColor=#F5AB50;" vertex="1" parent="1"><mxGeometry x="114.5" y="208" width="627" height="171" as="geometry"/></mxCell><mxCell id="19" style="edgeStyle=orthogonalEdgeStyle;sketch=1;orthogonalLoop=1;jettySize=auto;html=1;exitX=0.5;exitY=1;exitDx=0;exitDy=0;fontColor=#1A1A1A;strokeColor=#182E3E;" edge="1" parent="1" source="2" target="4"><mxGeometry relative="1" as="geometry"/></mxCell><mxCell id="20" style="edgeStyle=orthogonalEdgeStyle;sketch=1;orthogonalLoop=1;jettySize=auto;html=1;exitX=0.5;exitY=1;exitDx=0;exitDy=0;entryX=0.5;entryY=0;entryDx=0;entryDy=0;fontColor=#1A1A1A;strokeColor=#182E3E;" edge="1" parent="1" source="2" target="5"><mxGeometry relative="1" as="geometry"/></mxCell><mxCell id="22" style="edgeStyle=orthogonalEdgeStyle;sketch=1;orthogonalLoop=1;jettySize=auto;html=1;exitX=0.5;exitY=1;exitDx=0;exitDy=0;fontColor=#1A1A1A;strokeColor=#182E3E;" edge="1" parent="1" source="2" target="3"><mxGeometry relative="1" as="geometry"/></mxCell><mxCell id="2" value="XML文件" style="rounded=0;whiteSpace=wrap;html=1;sketch=1;fillColor=#F5AB50;strokeColor=#909090;fontColor=#1A1A1A;" vertex="1" parent="1"><mxGeometry x="368" y="105" width="120" height="60" as="geometry"/></mxCell><mxCell id="12" style="rounded=1;sketch=1;orthogonalLoop=1;jettySize=auto;html=1;exitX=0.5;exitY=1;exitDx=0;exitDy=0;entryX=0.5;entryY=0;entryDx=0;entryDy=0;fontColor=#1A1A1A;strokeColor=#182E3E;edgeStyle=orthogonalEdgeStyle;" edge="1" parent="1" source="3" target="8"><mxGeometry relative="1" as="geometry"/></mxCell><mxCell id="13" style="edgeStyle=orthogonalEdgeStyle;curved=1;rounded=1;sketch=1;orthogonalLoop=1;jettySize=auto;html=1;exitX=0.5;exitY=1;exitDx=0;exitDy=0;entryX=0.5;entryY=0;entryDx=0;entryDy=0;fontColor=#1A1A1A;strokeColor=#182E3E;" edge="1" parent="1" source="3" target="9"><mxGeometry relative="1" as="geometry"/></mxCell><mxCell id="14" style="edgeStyle=orthogonalEdgeStyle;rounded=1;sketch=1;orthogonalLoop=1;jettySize=auto;html=1;exitX=0.5;exitY=1;exitDx=0;exitDy=0;entryX=0.5;entryY=0;entryDx=0;entryDy=0;fontColor=#1A1A1A;strokeColor=#182E3E;" edge="1" parent="1" source="3" target="10"><mxGeometry relative="1" as="geometry"/></mxCell><mxCell id="3" value="&amp;lt;bean&amp;gt;&amp;lt;/bean&amp;gt;" style="rounded=0;whiteSpace=wrap;html=1;sketch=1;fontColor=#1A1A1A;strokeColor=#909090;fillColor=#F5AB50;" vertex="1" parent="1"><mxGeometry x="208" y="227" width="120" height="60" as="geometry"/></mxCell><mxCell id="4" value="&amp;lt;bean&amp;gt;&amp;lt;/bean&amp;gt;" style="rounded=0;whiteSpace=wrap;html=1;sketch=1;fontColor=#1A1A1A;strokeColor=#909090;fillColor=#F5AB50;" vertex="1" parent="1"><mxGeometry x="368" y="227" width="120" height="60" as="geometry"/></mxCell><mxCell id="5" value="......" style="rounded=0;whiteSpace=wrap;html=1;sketch=1;fontColor=#1A1A1A;strokeColor=#909090;fillColor=#F5AB50;" vertex="1" parent="1"><mxGeometry x="528" y="227" width="120" height="60" as="geometry"/></mxCell><mxCell id="8" value="&amp;lt;property&amp;gt;" style="rounded=1;whiteSpace=wrap;html=1;sketch=1;fontColor=#1A1A1A;strokeColor=#909090;fillColor=#F5AB50;" vertex="1" parent="1"><mxGeometry x="132" y="335" width="76" height="34" as="geometry"/></mxCell><mxCell id="9" value="&amp;lt;property&amp;gt;" style="rounded=1;whiteSpace=wrap;html=1;sketch=1;fontColor=#1A1A1A;strokeColor=#909090;fillColor=#F5AB50;" vertex="1" parent="1"><mxGeometry x="231.5" y="335" width="73" height="34" as="geometry"/></mxCell><mxCell id="10" value="......" style="rounded=1;whiteSpace=wrap;html=1;sketch=1;fontColor=#1A1A1A;strokeColor=#909090;fillColor=#F5AB50;" vertex="1" parent="1"><mxGeometry x="328" y="335" width="67" height="34" as="geometry"/></mxCell><mxCell id="24" value="&lt;font style=&quot;font-size: 15px&quot;&gt;Registry&lt;br&gt;BeanDefinition&lt;/font&gt;" style="rounded=0;whiteSpace=wrap;html=1;sketch=1;fillColor=#F5AB50;strokeColor=#909090;fontColor=#1A1A1A;" vertex="1" parent="1"><mxGeometry x="368" y="431" width="120" height="60" as="geometry"/></mxCell></root></mxGraphModel></diagram></mxfile>